<svg xmlns="http://www.w3.org/2000/svg" width="24" height="23" fill="none"><path fill="#fff" d="m8.99 3.92-.189.112a5.5 5.5 0 0 0-1.037.857l-.197.206a4.7 4.7 0 0 0-.592.763q-.066.12-.12.249c-.12.214-.24.445-.343.677a6 6 0 0 0-.514 2.349c0 4.457 6 11.015 6 11.015S18 13.59 18 9.133a6 6 0 0 0-1.56-4.012l-.154-.232a6.06 6.06 0 0 0-7.295-.968m1.131 7.056a2 2 0 0 1-.171-.198 3 3 0 0 1-.334-.505 3 3 0 0 1-.19-.403 2.73 2.73 0 0 1 0-1.595q.077-.251.207-.48a2 2 0 0 1 .291-.428q.16-.208.36-.377c.267-.223.576-.39.909-.489q.259-.088.531-.111H12a2.692 2.692 0 1 1-1.878 4.594"/></svg>